PathFileType	4	(X/Y/Z)	Run_400 01
DataRate	CameraRate	NumFrames	NumMarkers	Units	OrigDataRate	OrigDataStartFrame	OrigNumFrames
120	120	5	42	mm	120	101	128
Frame#	Time	LASI			RASI			LPSI			RTH1			RTH2			RTH3			LTH1			LTH2			LTH3			RTB1			RTB2			RTB3			LTB1			LTB2			LTB3			RCAL			RTOE			RMT5			LCAL			LTOE			LMT5			LACR			RACR			CLAV			C7			RUA1			RUA2			RUA3			RLEL			RMEL			LUA1			LUA2			LUA3			LLEL			LMEL			RFAsuperior			RFAradius			LFAsuperior			LFAradius			LFAulna			RFAulna			RPSI			
		X1	Y1	Z1	X2	Y2	Z2	X3	Y3	Z3	X4	Y4	Z4	X5	Y5	Z5	X6	Y6	Z6	X7	Y7	Z7	X8	Y8	Z8	X9	Y9	Z9	X10	Y10	Z10	X11	Y11	Z11	X12	Y12	Z12	X13	Y13	Z13	X14	Y14	Z14	X15	Y15	Z15	X16	Y16	Z16	X17	Y17	Z17	X18	Y18	Z18	X19	Y19	Z19	X20	Y20	Z20	X21	Y21	Z21	X22	Y22	Z22	X23	Y23	Z23	X24	Y24	Z24	X25	Y25	Z25	X26	Y26	Z26	X27	Y27	Z27	X28	Y28	Z28	X29	Y29	Z29	X30	Y30	Z30	X31	Y31	Z31	X32	Y32	Z32	X33	Y33	Z33	X34	Y34	Z34	X35	Y35	Z35	X36	Y36	Z36	X37	Y37	Z37	X38	Y38	Z38	X39	Y39	Z39	X40	Y40	Z40	X41	Y41	Z41	X42	Y42	Z42	

92	1.4	1115.319046	963.821985	-442.026463	1089.31103	982.528738	-212.28206	942.497795	1004.125411	-404.917532	1057.999492	821.899455	-162.188293	1166.198568	699.060417	-188.16706	1136.139584	595.371154	-217.711655	1056.604952	785.144523	-504.933608	1135.001035	690.852406	-490.896216	1072.904804	569.593169	-472.605953	1201.080341	377.207008	-296.131327	1137.899019	330.370088	-239.141148	1131.921249	209.706141	-311.288138	981.0646829999999	442.168788	-423.245769	898.858309	517.853383	-467.182348	797.7372769999999	515.078862	-402.556342	971.405922	91.225053	-341.830302	1185.536933	75.389307	-357.406463	1165.298917	45.58709	-250.742134	727.438188	661.735361	-396.55477	624.385483	487.160524	-346.777451	594.329206	503.400462	-450.013129	1110.57255	1456.531923	-501.410705	1062.484091	1426.073186	-137.293687	1155.479683	1394.854542	-286.397793	1047.09148	1484.36758	-330.045129	1011.265317	1352.818946	-97.169478	995.476033	1266.076126	-118.414674	910.061774	1287.286043	-120.868012	848.88054	1194.458093	-112.287097	850.663495	1195.488949	-179.715473	1072.765053	1392.427435	-559.863653	997.028904	1360.436716	-545.621258	1040.591363	1294.270462	-585.662154	948.918824	1224.804327	-629.448369	907.492194	1229.754041	-568.43708	910.763055	1125.075859	-88.02968799999999	1001.310678	963.5775169999999	-98.585398	1018.3095	1178.517725	-609.928423	1140.968861	1080.780417	-493.138376	1107.135597	1031.178181	-525.7997800000001	940.8051830000001	939.988807	-119.995995	930.49437	1010.749945	-302.090049	
93	1.408333	1111.73959	957.522993	-441.917307	1087.015093	974.797129	-211.518818	939.309904	999.080925	-402.898059	1050.249492	815.601005	-163.220758	1156.958636	691.147172	-189.39171	1125.578479	588.374769	-220.48945	1058.014706	781.004732	-505.12814	1143.661821	689.976973	-493.732951	1089.72231	565.528544	-477.81592	1183.604654	369.687146	-299.513093	1118.288952	324.804958	-243.003768	1106.375233	205.69317	-315.066192	1002.957109	442.005252	-426.031885	921.263068	516.822008	-470.279897	820.410486	515.165462	-404.936733	940.222008	91.99301199999999	-345.214483	1154.169015	73.765979	-359.187668	1132.762718	45.982102	-251.845507	747.880709	662.758228	-397.729535	646.886193	486.266752	-349.994495	619.026821	501.827708	-454.130763	1105.842732	1450.384109	-502.044081	1064.68236	1418.78299	-135.761143	1155.840864	1388.695455	-287.728957	1045.954711	1478.33629	-329.032387	1017.494553	1340.445915	-95.100191	1002.998988	1254.298602	-116.734086	916.804698	1272.646009	-113.360656	858.787499	1177.893629	-104.945711	856.399123	1179.837107	-172.308756	1066.48126	1386.036267	-559.667672	990.8140059999999	1353.939099	-543.355634	1033.06537	1288.146108	-584.7750559999999	939.719727	1219.904572	-627.170249	900.497269	1224.472648	-565.125406	925.218061	1110.750157	-85.14220899999999	1019.161827	953.940504	-100.305929	1007.223121	1169.413322	-610.61828	1127.855768	1060.990436	-500.867714	1089.302807	1015.035601	-533.495739	957.902524	928.102048	-118.726337	927.735103	1005.364843	-300.509007	
94	1.416667	1108.24204	952.418153	-442.56746	1084.675437	968.876705	-210.332748	936.1715799999999	995.364587	-401.195746	1041.69208	810.7350269999999	-164.735159	1147.072994	684.267827	-191.070517	1113.365243	582.723265	-222.498897	1059.720367	778.408632	-505.497091	1153.109604	691.855847	-495.973322	1108.070988	563.98386	-482.438293	1164.53544	362.613857	-301.541358	1097.215556	319.65693	-245.605994	1079.474518	202.063017	-317.939849	1026.266154	443.112015	-428.247218	943.956811	515.645093	-473.085309	843.240136	513.868869	-407.049509	908.504899	93.193634	-347.246451	1122.050569	72.712217	-360.487408	1099.939858	46.049585	-252.70222	766.120133	661.336335	-398.426044	670.136649	481.340905	-353.572575	643.882952	496.470826	-458.182167	1101.252082	1445.061828	-502.644064	1067.159557	1412.758436	-134.415288	1155.983798	1383.70588	-289.215281	1044.951991	1473.47753	-328.226541	1024.850926	1329.63806	-93.703256	1011.455314	1243.780118	-115.826127	924.936405	1259.885173	-106.220955	870.2116580000001	1162.429123	-97.73738899999999	863.178626	1165.270731	-164.770053	1060.37029	1380.773584	-559.288515	984.749508	1348.188947	-540.712755	1025.387566	1283.433736	-583.993996	930.226434	1215.93013	-624.80333	892.779378	1220.210232	-561.876064	940.868248	1098.446377	-82.61200100000001	1038.585898	946.656975	-102.434496	996.024414	1162.090626	-610.998891	1113.927983	1043.221388	-507.402178	1071.054952	1001.703134	-540.9142419999999	976.926585	918.081407	-117.872429	925.001041	1001.300963	-299.365536	
95	1.425	1105.041269	948.536949	-443.77676	1082.473339	964.90972	-208.968764	933.284435	992.885945	-400.04904	1033.21523	806.772872	-166.249269	1136.980484	678.099237	-192.550644	1100.083556	577.710199	-223.583065	1061.979797	777.0816620000001	-506.102585	1163.178395	696.4118549999999	-497.597357	1127.060834	565.555675	-486.289416	1143.436923	355.76152	-302.523373	1074.386773	315.189841	-246.833376	1050.89182	198.786034	-319.452326	1050.654138	445.500526	-430.310088	966.4841269999999	514.755611	-475.449631	865.799008	511.374557	-408.767296	875.856127	94.52897400000001	-347.829512	1088.98869	72.332418	-361.02098	1066.601194	45.856526	-253.201333	781.904537	657.334395	-398.573168	694.18884	472.462104	-357.405312	669.104633	487.347963	-462.169292	1096.927572	1440.790741	-503.219065	1070.00068	1408.357979	-133.359723	1155.901552	1379.940329	-290.827381	1044.049494	1469.918127	-327.624617	1032.538488	1321.540427	-93.075858	1020.649973	1235.327078	-115.754661	934.081445	1249.697186	-100.136204	882.912499	1149.072469	-91.059068	871.2767669999999	1152.542496	-157.541804	1054.456446	1376.950573	-558.791092	979.0145199999999	1343.649275	-537.7008059999999	1017.617994	1280.403481	-583.215995	920.410924	1213.568052	-622.4018600000001	884.315734	1217.522786	-558.6007499999999	957.234699	1089.087107	-80.471278	1059.357004	942.574336	-104.859465	984.973879	1157.43533	-610.990102	1099.49411	1028.582912	-512.999456	1052.951925	991.7747000000001	-547.964644	998.045944	910.765054	-117.589037	922.537357	998.408967	-298.833422	
96	1.433333	1102.308243	945.898396	-445.146419	1080.482031	962.565982	-207.783701	930.853173	991.523241	-399.560266	1025.532679	803.685597	-167.345819	1126.710334	672.519757	-193.355749	1085.988788	572.992331	-223.758731	1064.920169	777.065502	-506.953708	1173.461891	703.381458	-498.658664	1145.769986	570.4871429999999	-489.463695	1120.258088	349.276999	-302.74073	1049.870071	311.519283	-247.022092	1021.026782	196.068181	-319.504503	1075.53596	449.045505	-432.315034	988.410797	514.23459	-477.222372	887.81124	507.822866	-410.058879	842.612396	96.211186	-347.292075	1055.329179	72.365334	-360.832321	1032.845004	45.403511	-253.409702	795.367167	650.566571	-398.285258	719.15112	459.970708	-361.213899	694.949491	474.680865	-466.043057	1092.857775	1437.826695	-503.766591	1073.209952	1405.937565	-132.721313	1155.67735	1377.421195	-292.560264	1043.202838	1467.719159	-327.181969	1039.560363	1316.927417	-93.055268	1030.139619	1229.773048	-116.221561	943.5411779999999	1242.476498	-95.543713	896.320667	1138.766711	-85.33835999999999	880.8195449999999	1142.316067	-151.214776	1048.623528	1374.789396	-558.278621	973.636267	1340.83377	-534.429398	1009.730317	1279.237126	-582.379626	910.32185	1213.453309	-619.9898909999999	875.462856	1216.875115	-555.223385	973.795921	1083.313335	-78.766552	1081.041817	942.442681	-107.422473	974.1605939999999	1155.912568	-610.620003	1084.89769	1017.971645	-518.141001	1035.504834	985.574705	-554.582362	1020.978961	907.024227	-117.829214	920.561878	996.581799	-298.942098	
